<?xml version="1.0" encoding="UTF-8"?><svg id="Layer_1" xmlns="http://www.w3.org/2000/svg" viewBox="0 0 1080 1080"><defs><style>.cls-1{fill:#fff;}.cls-2{fill:#c15505;fill-rule:evenodd;}</style></defs><path class="cls-2" d="M540,0C108,0,0,108,0,540s108,540,540,540,540-108,540-540S972,0,540,0Z"/><path class="cls-1" d="M338.55,598.19l-45.67,26.16c-34.99-48.61-55.48-108.23-55.48-172.64s20.49-124.03,55.37-172.64l45.67,26.16c-30.52,40.76-48.72,91.55-48.72,146.48s18.2,105.72,48.83,146.48ZM637.08,357.87l46.21-26.38c26.48,32.81,42.4,74.66,42.4,120.21s-15.91,87.41-42.4,120.32l-46.21-26.38c22.56-24.74,36.29-57.76,36.29-93.84s-13.73-69.1-36.29-93.84v-.11ZM778,451.71c0-54.93-18.2-105.72-48.83-146.48l45.67-26.16c34.99,48.61,55.48,108.23,55.48,172.64s-20.49,124.03-55.37,172.64l-45.67-26.16c30.52-40.76,48.72-91.55,48.72-146.48ZM394.36,451.71c0,36.18,13.73,69.1,36.29,93.84l-46.21,26.38c-26.48-32.81-42.4-74.66-42.4-120.21s15.91-87.41,42.4-120.32l46.21,26.38c-22.56,24.85-36.29,57.76-36.29,93.95ZM603.62,451.71c0,25.83-14.06,48.39-34.88,60.38v323.26h-69.75v-323.26c-20.82-12.1-34.88-34.55-34.88-60.38,0-38.47,31.28-69.75,69.75-69.75s69.75,31.28,69.75,69.75Z"/></svg>